<?xml version="1.0" standalone="no"?>
<!DOCTYPE svg PUBLIC "-//W3C//DTD SVG 1.1//EN" "http://www.w3.org/Graphics/SVG/1.1/DTD/svg11.dtd" >
<svg xmlns="http://www.w3.org/2000/svg">
<metadata>Generated by IcoMoon</metadata>
<defs>
<font id="icomoon" horiz-adv-x="1024">
<font-face units-per-em="1024" ascent="960" descent="-64" />
<missing-glyph horiz-adv-x="1024" />
<glyph unicode="&#x20;" horiz-adv-x="512" d="" />
<glyph unicode="&#xe000;" glyph-name="YouTube" d="M442.508 814.772h-52.17l-31.728-132.848h-3.258l-33.298 132.848-51.706-0.016 61.068-200.638v-131.72h51.34v137.908zM458.132 494.694c11.914-12.276 27.814-18.438 47.652-18.488h0.436c20.614 0.052 36.798 6.030 48.588 17.906 11.772 11.93 17.67 28.376 17.682 49.354v126.724c-0.012 18.674-6.014 33.948-18.034 45.792-12.052 11.876-27.496 17.794-46.382 17.794-20.724 0-37.228-5.604-49.474-16.878-12.286-11.26-18.432-26.384-18.432-45.362l0.018-127.112c0.004-20.834 5.994-37.418 17.946-49.73v0zM487.106 673.366v0c0 5.364 1.744 9.692 5.216 13.006 3.482 3.276 7.982 4.906 13.544 4.906 6.018 0 10.898-1.632 14.606-4.906 3.702-3.312 5.58-7.642 5.58-13.006v-133.53c0-6.598-1.816-11.736-5.458-15.498-3.628-3.768-8.526-5.648-14.726-5.648-6.024 0-10.642 1.836-13.91 5.502-3.242 3.704-4.854 8.908-4.854 15.644l-0.002 133.53zM695.746 727.58v-186.124c-4.306-5.322-8.982-9.732-14.118-13.178-5.108-3.456-9.332-5.16-12.696-5.16-4.274 0-7.366 1.296-9.262 3.906-1.898 2.598-2.848 6.788-2.848 12.608v187.948h-45.606v-205.026c0.010-14.554 2.68-25.468 8.008-32.758 5.338-7.284 13.288-10.912 23.822-10.912 8.528 0 17.358 2.6 26.482 7.792 9.060 5.208 17.8 12.818 26.22 22.774v-27.054h45.568l-0.004 245.184h-45.566zM404.010 388.104h-107.738v-32.986h36.31v-194.286h35.102v194.286h36.328v32.986h-0.002zM461.374 201.222v127.26h31.174v-167.648h-31.174v18.518c-5.736-6.842-11.72-12.026-17.932-15.59-6.216-3.566-12.254-5.342-18.094-5.342-7.2 0-12.644 2.492-16.28 7.474-3.662 4.996-5.496 12.478-5.496 22.464v140.124h31.166v-128.5c0-3.986 0.656-6.87 1.972-8.632 1.3-1.786 3.418-2.664 6.342-2.664 2.284 0 5.18 1.16 8.69 3.514 3.508 2.366 6.714 5.366 9.632 9.022v0 0zM582.156 330.61v0c-4.836 0-9.614-1.34-14.348-4.004-4.716-2.664-9.184-6.542-13.396-11.666v73.164h-31.452v-227.27h31.448v12.886c4.124-5.096 8.548-8.88 13.314-11.308 4.778-2.468 10.206-3.704 16.306-3.704 9.25 0 16.286 3.17 21.184 9.492 4.884 6.338 7.314 15.454 7.314 27.374v93c0 13.698-2.588 24.122-7.798 31.3-5.182 7.142-12.73 10.736-22.572 10.736v0zM580.448 200.14v0c0-5.354-0.904-9.206-2.702-11.562-1.794-2.352-4.594-3.53-8.42-3.53-2.638 0-5.138 0.584-7.514 1.812-2.4 1.194-4.846 3.16-7.404 5.884v104.474c2.136 2.302 4.272 4 6.46 5.112 2.16 1.088 4.346 1.64 6.574 1.64 4.224 0 7.438-1.47 9.662-4.394 2.228-2.934 3.34-7.23 3.34-12.896l0.002-86.54h0.002zM727.728 240.74v0 42.672c0 15.916-3.824 28.102-11.452 36.58-7.676 8.49-18.634 12.73-32.894 12.73-13.936 0-25.316-4.574-34.136-13.726-8.812-9.162-13.198-21.028-13.198-35.584v-75.258c0-16.126 4.004-28.798 12.012-38.042 8.040-9.198 19.016-13.814 32.964-13.814 15.524 0 27.184 4.332 34.992 13.034 7.824 8.706 11.71 21.65 11.71 38.818v12.596h-32.070v-11.644c0-9.878-1.026-16.236-3.082-19.13-2.046-2.864-5.68-4.32-10.848-4.32-4.944 0-8.448 1.698-10.506 5.112-2.066 3.402-3.112 9.54-3.112 18.338v31.636l59.62 0.002zM668.11 283.728v0c0 7.020 1.102 12.056 3.262 15.088 2.156 3.040 5.72 4.554 10.686 4.554 4.736 0 8.198-1.516 10.354-4.554 2.16-3.032 3.242-8.068 3.242-15.088v-16.982h-27.548l0.002 16.982z" />
<glyph unicode="&#xe001;" glyph-name="Yandex" d="M453.182 540.422c0-75.214 39.986-105.298 81.22-105.298h26.256v215.61h-31.88c-38.11 0-75.596-31.958-75.596-110.312zM830.284 482.568l-157.268 268.7c-18.926 32.78-13.354 31.654-48.506 31.894h-358.626c-44.736 0-81.338-36.6-81.338-81.336v-490.63c0-44.736 36.606-81.338 81.338-81.338h358.278c21.87 0 26.096-0.348 37.282 19.832l169.62 282.7c10.282 16.972 12.35 32.612-0.78 50.178zM608.77 225.782c0-3.124-1.254-5-5.002-5h-38.756c-2.482 0-4.352 2.502-4.352 4.378v169.86h-31.26l-86.844-169.86c-1.248-3.128-3.75-4.378-7.498-4.378h-44.364c-4.984 0-8.106 4.378-4.984 10.022l95.58 172.986c-51.22 22.566-79.972 68.312-79.972 130.358 0 103.418 59.366 156.694 129.332 156.694h71.24c4.37 0 6.876-1.876 6.876-6.272l0.002-458.788z" />
<glyph unicode="&#xe002;" glyph-name="Vkontakte" d="M306.082 734.608h243.048c79.974 0 148.054-39.178 147.982-118.402-0.062-66.152-24.014-91.882-73.222-120.978 4.204-3.466 32.404-11.878 41.874-16.544 15.162-7.472 24.082-15.028 34.058-25.168 27.918-28.386 33.124-54.336 33.124-98.862 0-103.31-99.924-155.248-196.15-155.248h-231.742l1.028 535.202zM438.152 593.996l-0.018-69.502c62.602 0 121.428-8.246 121.428 59.632 0 62.84-66.548 52.486-121.472 52.486l0.062-42.616zM438.118 297.922c68.596 0 153.342-11.302 154.83 66.578 1.556 81.234-87.056 66.572-154.79 66.572l-0.040-133.15z" />
<glyph unicode="&#xe003;" glyph-name="VK" d="M732.864 255.242c-1.126 0-2.228 0-3.352 0-36.045 6.016-60.604 31.878-81.578 55.806-11.8 13.536-29.968 44.142-51.608 40.614-30.726-5.033-15.452-58.348-28.294-81.206-10.354-18.456-54.468-15.126-84.892-11.828-96.024 10.352-145.090 62.428-188.108 118.406-45.986 59.826-81.786 122.428-114.878 191.16-10.72 22.248-24.966 46.864-24.966 74.437 15.564 12.874 40.962 8.452 66.596 8.452 21.726 0 55.662 4.86 71.568-3.386 9.458-4.86 19.006-30.809 26.646-47.359 17.532-37.984 33.657-65.321 54.936-96.418 9.214-13.482 23.374-38.908 39.952-35.528 16.1 3.269 17.618 43.566 18.31 69.34 0.804 29.272-0.034 65.668-8.316 81.204-7.828 14.665-22.146 14.958-36.626 23.696 12.052 24.62 45.082 27.076 84.91 27.076 33.454 0 80.172 3.758 93.216-18.628 13.281-22.798 4.166-63.906 3.326-94.712-0.924-34.63-6.824-70.386 16.668-86.294 18.054 1.994 27.77 19.874 38.27 33.847 22.967 30.578 37.172 57.045 54.934 96.418 7.288 16.174 15.1 43.998 28.294 49.066 20.106 7.724 52.158 1.678 81.578 1.678 24.126 0 67.168 6.769 74.925-10.158 6.428-14.032-12.494-49.472-18.308-59.189-22.306-37.148-44.178-60.81-68.244-93.040-9.638-12.901-29.506-33.528-28.322-54.156 0.898-15.646 16.374-27.658 28.322-38.912 25.834-24.382 43.968-42.15 64.914-69.338 7.87-10.242 24.938-32.428 23.29-45.678-5.060-41.336-100.874-15.418-133.158-25.366z" />
<glyph unicode="&#xe004;" glyph-name="vimeo" d="M852.436 642.872c5.16 28.934 5.044 58.68-12.822 81.178-24.932 31.546-77.99 32.704-114.346 27.14-29.57-4.522-129.596-48.65-163.632-154.302 60.304 4.582 91.904-4.348 86.106-70.74-2.436-27.774-16.464-58.216-32.124-87.384-18.090-33.632-52.014-99.68-96.486-52.074-40.070 42.856-37.060 124.788-46.218 179.352-5.096 30.62-10.494 68.77-20.522 100.256-8.642 27.080-28.47 59.726-52.708 66.8-26.036 7.654-58.222-4.29-77.124-15.424-60.188-35.37-106.056-85.7-158.124-127.22v-3.884c10.322-9.858 13.104-26.036 28.294-28.24 35.836-5.276 69.992 33.402 93.82-6.84 14.496-24.586 19.022-51.548 28.302-78.050 12.406-35.314 21.974-73.76 32.124-114.346 17.164-68.772 38.268-171.526 97.708-196.684 30.324-12.878 75.906 4.346 98.976 18.030 62.514 36.998 111.222 90.632 152.916 145.198 95.322 129.124 147.914 275.424 155.86 317.234z" />
<glyph unicode="&#xe005;" glyph-name="twitter" d="M852.168 655.022c-24.068-10.674-49.934-17.886-77.082-21.132 27.708 16.608 48.99 42.91 59.010 74.252-25.936-15.38-54.654-26.55-85.23-32.568-24.48 26.084-59.362 42.382-97.962 42.382-74.122 0-134.214-60.090-134.214-134.21 0-10.518 1.184-20.762 3.474-30.588-111.544 5.598-210.436 59.030-276.63 140.23-11.556-19.822-18.17-42.876-18.17-67.474 0-46.564 23.692-87.646 59.706-111.71-22.002 0.698-42.698 6.734-60.792 16.786-0.012-0.56-0.012-1.12-0.012-1.688 0-65.028 46.264-119.266 107.662-131.604-11.262-3.064-23.118-4.708-35.36-4.708-8.648 0-17.056 0.844-25.252 2.41 17.080-53.318 66.648-92.122 125.376-93.2-45.93-36-103.802-57.46-166.684-57.46-10.832 0-21.516 0.64-32.016 1.88 59.396-38.080 129.944-60.3 205.734-60.3 246.866 0 381.862 204.508 381.862 381.864 0 5.818-0.13 11.608-0.388 17.364 26.226 18.924 48.976 42.56 66.968 69.474z" />
<glyph unicode="&#xe006;" glyph-name="tumblr" d="M372.754 257.628c0.168-34.042 7.368-66.968 29.63-91.628 2.858-3.164 5.47-4.82 8.236-7.72 21.008-22.022 51.88-39.054 90.328-48.2 39.47-9.392 87.004-9.034 126.858-2.44 29.296 4.844 81.018 20.978 102.016 34.188l-0.066 110.546c-10.66-2.462-57.112-40.006-119.744-33.178-49.816 5.428-67.128 38.488-69.21 84.736-1.886 15.928-1.922 212.93-1.678 216.104l167.062 0.020 0.010 110.548-167.774 0.424-0.8 178.508-80.96-0.002c-12.048 0.094-17.798 3.548-19.842-6.404-6.872-33.464-8.854-55.516-23.982-84.268-23.77-45.162-68.222-86.754-118.646-98.166v-100.6l78.272-0.688 0.29-261.78z" />
<glyph unicode="&#xe009;" glyph-name="SoundCloud" d="M854.626 511.174c-12.426 0-26.622-3.548-42.612-8.876-12.424 94.078-90.538 166.872-189.958 166.872-49.718 0-90.538-15.974-124.278-46.154v-326.664h353.31v1.766c76.34 5.33 108.29 49.716 108.29 106.532 0 58.588-42.608 106.524-104.752 106.524zM423.212 598.154v-301.802h55.020v308.91l-15.954-23.066zM366.394 603.48v-307.128h37.292v307.128c-7.122 0-15.98 1.782-23.080 1.782-5.334 0-10.658 0-14.212-1.782zM291.832 296.352h37.282v300.022c-12.434-3.55-24.858-8.878-37.282-17.736v-282.286zM217.266 480.992v-184.64h37.272l-0.002 246.778c-15.96-21.304-24.848-42.606-30.172-65.688 0.002 0.004-1.776 1.774-7.098 3.55zM142.688 489.87v-189.97c8.888-1.782 15.986-3.548 28.41-3.548h8.892v195.29c-1.786 1.78-5.354 1.78-8.892 1.78-12.42-0.002-19.522-1.78-28.41-3.552zM69.904 393.996c0-28.408 12.424-53.26 35.508-74.56v149.126c-21.314-19.526-35.508-44.376-35.508-74.566z" />
<glyph unicode="&#xe00a;" glyph-name="Skype" d="M820.996 385.904c4.722 21.63 7.24 44.090 7.24 67.128 0 172.692-140.020 312.716-312.748 312.716-18.222 0-36.11-1.564-53.474-4.572-27.952 17.61-61.022 27.826-96.488 27.826-100.17 0-181.38-81.21-181.38-181.346 0-33.504 9.112-64.826 24.942-91.732-4.14-20.342-6.348-41.358-6.348-62.892 0-172.724 140.020-312.748 312.748-312.748 19.574 0 38.718 1.808 57.278 5.246 25.526-13.716 54.702-21.51 85.72-21.51 100.168 0 181.378 81.178 181.378 181.348 0 28.936-6.812 56.268-18.868 80.536zM675.882 303.566c-14.464-20.472-35.84-36.694-63.536-48.21-27.426-11.4-60.306-17.182-97.73-17.182-44.914 0-82.574 7.9-111.968 23.494-21.014 11.348-38.334 26.72-51.492 45.694-13.282 19.162-20.022 38.174-20.022 56.508 0 11.46 4.392 21.396 13.046 29.528 8.568 8.056 19.546 12.14 32.64 12.14 10.744 0 20.014-3.226 27.548-9.594 7.2-6.102 13.378-15.126 18.338-26.784 5.542-12.696 11.584-23.41 17.968-31.85 6.132-8.118 14.958-14.946 26.23-20.272 11.336-5.366 26.62-8.090 45.422-8.090 25.856 0 47.046 5.524 62.992 16.408 15.574 10.632 23.14 23.394 23.14 39.020 0 12.344-3.948 22.052-12.076 29.664-8.51 7.96-19.736 14.148-33.366 18.402-14.22 4.432-33.514 9.212-57.38 14.208-32.454 6.948-60.032 15.202-81.962 24.526-22.424 9.542-40.504 22.768-53.722 39.322-13.43 16.802-20.238 37.886-20.238 62.672 0 23.626 7.146 44.918 21.236 63.288 13.986 18.24 34.41 32.418 60.706 42.144 25.956 9.598 56.828 14.464 91.762 14.464 27.93 0 52.486-3.23 72.982-9.604 20.614-6.42 37.992-15.088 51.65-25.756 13.752-10.744 23.986-22.242 30.406-34.184 6.488-12.062 9.784-24.062 9.784-35.676 0-11.172-4.318-21.33-12.834-30.174-8.562-8.908-19.37-13.424-32.12-13.424-11.58 0-20.644 2.828-26.938 8.4-5.85 5.174-11.922 13.24-18.66 24.842-7.798 14.818-17.238 26.498-28.068 34.728-10.506 7.994-28.072 12.052-52.21 12.052-22.42 0-40.65-4.498-54.186-13.374-13.046-8.554-19.384-18.36-19.384-29.978 0-7.126 2.040-13.082 6.238-18.206 4.444-5.43 10.714-10.196 18.636-14.158 8.222-4.13 16.69-7.414 25.176-9.758 8.688-2.41 23.276-5.986 43.27-10.606 25.306-5.434 48.572-11.518 69.136-18.094 20.826-6.668 38.826-14.886 53.5-24.436 14.982-9.752 26.842-22.282 35.258-37.234 8.438-15.012 12.714-33.54 12.714-55.072-0.006-25.758-7.364-49.238-21.886-69.788z" />
<glyph unicode="&#xe00b;" glyph-name="Share" d="M258.282 568.114c29.316 0 56.54-10.47 81.684-31.394l253.42 127.732v8.372c0 69.116 56.54 123.57 125.654 123.57 69.11 0 125.654-54.452 125.654-123.57 0-73.296-56.546-125.652-125.654-125.652-31.422 0-58.652 10.472-81.684 29.314l-253.42-127.722v-14.666l253.42-125.654c23.032 16.756 50.26 29.326 81.684 29.326 69.11 0 125.654-56.554 125.654-125.664 0-69.114-56.546-125.67-125.654-125.67-69.114 0-125.654 56.554-125.654 125.67v6.27l-253.42 127.764c-23.032-18.854-50.26-29.326-81.684-29.326-69.11 0-125.654 56.554-125.654 125.666 0 69.114 56.544 125.634 125.654 125.634z" />
<glyph unicode="&#xe00c;" glyph-name="RSS" d="M199.506 650.154c278.402 0 504.904-227.734 504.904-507.652h120.366c0 346.292-280.498 628.016-625.27 628.016v-120.364zM365.972 226.584c0-46.048-37.338-83.374-83.372-83.374-46.028 0-83.37 37.326-83.37 83.374 0 46.054 37.34 83.374 83.37 83.374 46.038 0 83.372-37.326 83.372-83.374v0zM199.326 436.774v120.366c227.628 0 412.82-185.952 412.82-414.514h-120.37c0 78.7-30.436 152.62-85.708 208.15-55.19 55.454-128.61 85.998-206.742 85.998z" />
<glyph unicode="&#xe010;" glyph-name="Pinterest" d="M541.274 798.968c-196.108 0-295.006-140.599-295.006-257.864 0-70.989 26.883-134.139 84.516-157.662 9.457-3.892 17.934-0.149 20.677 10.327 1.912 7.222 6.419 25.494 8.436 33.131 2.762 10.35 1.687 13.962-5.95 23.014-16.619 19.593-27.249 44.968-27.249 80.934 0 104.302 78.054 197.681 203.227 197.681 110.847 0 171.747-67.728 171.747-158.157 0-119.029-52.675-219.484-130.846-219.484-43.183 0-75.489 35.702-65.157 79.502 12.397 52.299 36.428 108.7 36.428 146.485 0 33.773-18.148 61.948-55.658 61.948-44.139 0-79.608-45.67-79.608-106.83 0-38.955 13.162-65.319 13.162-65.319s-45.16-191.411-53.087-224.924c-15.768-66.759-2.362-148.573-1.232-156.835 0.66-4.909 6.952-6.097 9.818-2.4 4.058 5.332 56.656 70.224 74.508 135.095 5.062 18.341 29.029 113.44 29.029 113.44 14.345-27.371 56.272-51.415 100.838-51.415 132.672 0 222.694 120.942 222.694 282.855 0.020 122.451-103.686 236.465-261.286 236.465z" />
<glyph unicode="&#xe013;" glyph-name="MySpace" d="M654.59 561.080c57.736 0 104.558 46.824 104.558 104.56 0 57.732-46.82 104.558-104.558 104.558-57.732 0-104.562-46.826-104.562-104.558-0.002-57.74 46.83-104.56 104.562-104.56v0zM312.392 587.692c34.634 0 62.734 28.082 62.734 62.738 0 34.638-28.1 62.738-62.734 62.738-34.644 0-62.738-28.1-62.738-62.738 0-34.656 28.092-62.738 62.738-62.738v0zM312.392 576.29c32.57 0 60.878-18.188 75.328-44.968 19.1 20.634 46.416 33.556 76.758 33.556 41.676 0 77.648-24.374 94.448-59.652 25.296 22.896 58.844 36.844 95.662 36.844 78.76 0 142.582-63.824 142.582-142.592 0-3.208-0.264-6.344-0.472-9.498h0.472v-247.154h-285.168v129.28h-152.088v64.638h-133.074v148.288h0.286c-0.138 1.902-0.286 3.782-0.286 5.708 0 47.256 38.288 85.55 85.552 85.55v0zM464.478 578.838c42.334 0 76.666 34.308 76.666 76.666 0 42.334-34.33 76.672-76.666 76.672-42.338 0-76.674-34.338-76.674-76.672 0-42.358 34.338-76.666 76.674-76.666z" />
<glyph unicode="&#xe015;" glyph-name="Linkedin" d="M266.132 641.872c48.886 0 79.33 32.426 79.33 72.904-0.91 41.382-30.444 72.89-78.394 72.89-47.97 0-79.33-31.508-79.33-72.89 0-40.48 30.434-72.904 77.484-72.904h0.91zM336.246 162.424v421.872h-140.22v-421.872h140.22zM413.836 162.424h140.218v235.594c0 12.604 0.91 25.21 4.616 34.206 10.138 25.2 33.206 51.294 71.942 51.294 50.752 0 71.032-38.698 71.032-95.404v-225.692h140.218v241.898c0 129.578-69.172 189.878-161.438 189.878-75.648 0-108.858-42.29-127.298-71.088h0.926v61.186h-140.218c1.842-39.576 0.002-421.872 0.002-421.872v0z" />
<glyph unicode="&#xe016;" glyph-name="LiveJournal" d="M562.916 251.59c4.822 15.896 17.48 32.242 23.98 52.028 8.856 26.96 7.048 36.986 7.654 65.838 62.554-13.066 72.318-5.702 122.158 16.216 6.414-8.508 25.582-148.208 27.21-169.896-6.968-4.4-13.81-6.194-20.968-11.452-9.226-6.778-8.764-10.432-16.732-16.964l-143.302 64.23zM407.186 601.080c-13.544-12.66-67.082-61.7-49.542-85.81 21.596-29.686 41.722-55.164 62.97-84.094l117.712-157.662c3.398-4.336 4.582-5.574 7.882-8.636 0.496 0.464 1.158 1.098 1.464 1.418l2.786 2.88c0.37 0.43 0.886 1.032 1.256 1.486 2.914 3.602 0.88 0.978 3.3 4.664 2.534 3.866 3.786 6.154 5.766 10.038 4 7.846 7.042 15.782 9.53 24.518 14.39 50.532 1.16 73.546-20.648 103.43l-85.186 114.142c-10.186 13.694-48.848 67.786-57.29 73.626v0zM421.428 615.5c2.932-10.722 47.584-67.272 56.706-79.594 18.644-25.18 36.726-49.48 55.976-75.146 13.542-18.060 42.322-64.756 61.946-71.71 38.362-13.59 78.838-5.934 109.468 11-7.556 15.574-135.13 182.668-154.386 208.9l-31.216 42.3c-16.726 16.89-85.592-31.024-98.494-35.75v0zM471.456 677.114c-14.56-5.64-48.222-22.82-57.166-24.376-5.128-7.566-17.584-15.118-24.828-20.512-28.484-21.206-39.352-42.806-56.012-69.858l-4.958-6.516c-11.592 12.13-23.148 27.598-32.702 42.89 6.892 38.13 58.872 85.456 84.826 100.55 15.304 9.184 39.51 22.946 60.030 26.436l19 4.378c7.302-6.886 34.29-41.266 35.208-48.302l-23.398-4.69zM271.694 632.972c-11.284 67.030 93.836 153.586 164.406 125.712-8.326-5.718-86.098-19.32-136.090-84.248-10.472-13.6-24.018-39.216-28.316-41.464v0zM512.774 237.446c15.018-20.62 20.42-18.642 51.934-32.092 70.296-30 165.206-68.856 232.44-100.222-5.222 76.498-24.26 203.786-35.504 284.194-4.318 30.886-274.062 387.014-298.16 404.724-83.176 61.14-295.694-94.11-220.974-194.672 18.276-24.598 33.062-44.518 51.564-69.122 254.612-338.576 18.208-17.546 218.7-292.81z" />
<glyph unicode="&#xe017;" glyph-name="lastfm" d="M464.076 285.762l-28.482 77.426c0 0-46.288-51.622-115.696-51.622-61.418 0.002-105.022 53.402-105.022 138.846 0 109.468 55.17 148.628 109.468 148.628 78.314 0 103.234-50.73 124.596-115.7l28.484-89c28.472-86.326 81.874-155.744 235.84-155.744 110.368 0 185.124 33.818 185.124 122.81 0 72.092-40.948 109.472-117.484 127.276l-56.958 12.458c-39.154 8.9-50.726 24.92-50.726 51.62 0 30.262 24.024 48.060 63.19 48.060 42.718 0 65.854-16.022 69.42-54.292l88.996 10.684c-7.122 80.098-62.296 113.026-153.080 113.026-80.092 0-158.416-30.262-158.416-127.268 0-60.518 29.37-98.794 103.232-116.59l60.53-14.24c45.39-10.684 60.508-29.37 60.508-55.18 0-32.922-32.036-46.276-92.556-46.276-89.89 0-127.266 47.172-148.632 112.14l-29.368 88.992c-37.372 115.704-97.004 158.42-215.38 158.42-130.826 0-200.246-82.768-200.246-223.384 0-135.282 69.422-208.256 194.026-208.256 100.566 0 148.632 47.166 148.632 47.166v0z" />
<glyph unicode="&#xe019;" glyph-name="Instagram" d="M725.784 790.162h-431.531c-74.963 0-135.938-60.969-135.938-135.932v-431.546c0-74.963 60.987-135.932 135.938-135.932h431.546c74.963 0 135.932 60.969 135.932 135.932v431.564c-0.018 74.963-60.987 135.914-135.938 135.914zM764.775 709.101l15.548 0.060v-119.229l-118.833-0.38-0.416 119.215 103.691 0.337zM409.62 510.662c22.527 31.175 59.083 51.622 100.4 51.622s77.867-20.448 100.372-51.622c14.659-20.345 23.443-45.234 23.443-72.196 0-68.261-55.588-123.8-123.825-123.8-68.279 0-123.807 55.537-123.807 123.8 0.018 26.962 8.769 51.845 23.425 72.196zM793.184 222.702c0-37.189-30.235-67.399-67.399-67.399h-431.531c-37.171 0-67.405 30.21-67.405 67.399v287.96h104.992c-9.070-22.307-14.162-46.663-14.162-72.196 0-106.035 86.262-192.357 192.339-192.357 106.059 0 192.326 86.322 192.326 192.357 0 25.522-5.121 49.887-14.186 72.196h105.028v-287.96z" />
<glyph unicode="&#xe01a;" glyph-name="instagram-alt" d="M925.536 960h-827.072c-54.368 0-98.464-44.064-98.464-98.432v-827.136c0-54.368 44.096-98.432 98.464-98.432h827.072c54.4 0 98.464 44.064 98.464 98.432v827.136c0 54.368-44.064 98.432-98.464 98.432zM512 644.928c108.736 0 196.928-88.192 196.928-196.928s-88.192-196.928-196.928-196.928-196.928 88.192-196.928 196.928 88.192 196.928 196.928 196.928zM905.856 93.568c0-21.76-17.632-39.424-39.36-39.424h-708.96c-21.76 0-39.36 17.696-39.36 39.424v433.184h89.088c-6.528-25.184-10.336-51.488-10.336-78.752 0-174.016 141.056-315.072 315.072-315.072s315.072 141.056 315.072 315.072c0 27.264-3.808 53.568-10.304 78.752h89.088v-433.184zM905.856 684.32c0-21.76-17.632-39.36-39.36-39.36h-118.144c-21.76 0-39.36 17.632-39.36 39.36v118.112c0 21.76 17.632 39.424 39.36 39.424h118.144c21.76 0 39.36-17.696 39.36-39.424v-118.112z" />
<glyph unicode="&#xe01b;" glyph-name="google" d="M908.882 643.014h-132.692v132.692h-33.174v-132.692h-132.692v-33.174h132.692v-132.692h33.174v132.692h132.692zM464.946 394.546c-18.536 13.12-53.98 45.032-53.98 63.786 0 21.98 6.274 32.812 39.358 58.662 33.916 26.5 57.916 63.75 57.916 107.088 0 51.582-22.974 101.864-66.104 118.448h65.022l45.892 33.176c0 0-153.804 0-205.066 0-91.938 0-178.462-69.652-178.462-150.334 0-82.446 62.668-148.988 156.2-148.988 6.504 0 12.824 0.128 19.012 0.572-6.070-11.62-10.41-24.712-10.41-38.298 0-22.912 12.326-41.49 27.912-56.654-11.772 0-23.148-0.34-35.548-0.34-113.874 0-201.52-72.526-201.52-147.732 0-74.066 96.084-120.4 209.962-120.4 129.82 0 201.524 73.662 201.524 147.732-0.008 59.396-17.53 94.966-71.708 133.282v0zM355.392 497.286v0c-52.838 1.58-103.046 59.108-112.166 128.478-9.118 69.382 26.306 122.488 79.13 120.908 52.818-1.59 103.048-57.258 112.172-126.63 9.114-69.382-26.32-124.332-79.136-122.756v0zM334.702 146.28v0c-78.708 0-135.558 49.824-135.558 109.676 0 58.66 70.51 107.488 149.22 106.64 18.37-0.194 35.488-3.15 51.030-8.18 42.724-29.714 73.376-46.504 82.022-80.366 1.628-6.87 2.512-13.932 2.512-21.146 0-59.852-38.566-106.624-149.226-106.624z" />
<glyph unicode="&#xe01d;" glyph-name="GitHubcircle" d="M817.51 755.716c-83.27 83.266-183.202 124.904-301.442 124.904-118.248 0-218.178-41.638-301.454-124.904-83.272-83.276-124.91-183.204-124.91-301.458 0-118.244 41.636-218.174 124.91-301.448 83.276-83.264 183.206-124.906 301.454-124.906 118.24 0 218.17 41.644 301.442 124.906 83.268 83.276 124.914 183.204 124.914 301.448 0.004 118.254-41.644 218.182-124.914 301.458zM655.964 124.498c-11.718-4.848-21.652-8.332-33.312-11.664v63.292c0 33.308-11.658 58.294-34.966 74.95 91.59 6.662 191.522 43.304 191.522 201.52 0 43.302-13.322 79.942-41.636 109.92 11.658 33.312 9.994 69.954-4.994 108.254l-9.994 1.67c-13.248 2.204-54.964-11.664-101.596-43.302-33.302 9.994-68.286 14.986-103.252 14.986-34.974 0-69.95-4.992-101.596-14.986-81.604 51.624-111.584 43.302-113.25 41.632-14.988-38.3-16.654-74.942-4.994-108.254-28.316-29.978-41.636-66.62-41.636-109.92 0-158.216 99.926-194.858 191.53-201.52-21.652-14.992-33.312-39.97-33.312-74.95v-64.952c-13.322 3.332-26.588 8.476-38.302 13.322-84.886 35.122-154.072 105.268-189.864 189.866-37.492 88.612-37.492 191.178 0 279.792 35.79 84.598 105.264 154.072 189.864 189.866 88.618 37.488 191.176 37.488 279.794 0 84.6-35.794 154.072-105.268 189.864-189.866 37.488-88.612 37.488-191.178 0-279.792-35.798-84.596-104.994-154.738-189.87-189.864z" />
<glyph unicode="&#xe01e;" glyph-name="FourSquare" d="M470.262 247.304l-117.432 96.202c-22.126-6.818-45.374-7.802-67.558-3.334l169.928-169.91c13.846-13.854 36.3-13.854 50.14 0l172.982 172.974c13.86 13.848 13.86 36.3 0 50.146l-8.892 8.892-184.186-155.202c-7.878-6.376-14.982 0.232-14.982 0.232zM442.174 429.844l27.528-36.462c0 0 8.1-11.888 17.258 0.816l79.722 110.834-61.34 61.342c-13.84 13.84-36.294 13.84-50.14 0l-23.744-23.742c20.216-35.2 23.23-76.368 10.716-112.788zM765.996 751.736l-279.382-383.526c-8.004-8.93-15.064-4.232-17.844-0.912-0.954 1.126-19.976 26.032-44.578 58.294 14.67 33.57 13.668 72.712-3.894 105.876-4.136 7.8-9.176 15.274-15.152 22.262-43.774 51.148-120.714 57.162-171.856 13.384-51.162-43.76-57.148-120.7-13.384-171.856 14.714-17.204 33.18-29.28 53.158-36.092 26.688-9.1 56.078-8.79 82.818 1.384l114.854-92.376c0 0 6.28-5.834 13.218-0.2l363.262 306.538v177.22l-81.22 0.004z" />
<glyph unicode="&#xe01f;" glyph-name="flickr" d="M898.9 456.512c0-100.556-81.516-182.072-182.074-182.072-100.556 0-182.068 81.514-182.068 182.072s81.514 182.072 182.068 182.072c100.558 0.002 182.074-81.514 182.074-182.072v0zM489.25 456.512c0-100.556-81.514-182.072-182.072-182.072s-182.072 81.514-182.072 182.072c0 100.558 81.514 182.072 182.072 182.072s182.072-81.514 182.072-182.072v0zM454.996 456.512c0 81.638-66.178 147.816-147.816 147.816s-147.816-66.176-147.816-147.816c0-81.638 66.178-147.812 147.816-147.812s147.816 66.174 147.816 147.812z" />
<glyph unicode="&#xe021;" glyph-name="facebook" d="M368.818 562.638h64.45v62.66c0 27.572 0.716 70.178 20.764 96.554 21.126 27.932 50.13 46.904 100.016 46.904 81.276 0 115.534-11.572 115.534-11.572l-16.112-95.482c0 0-26.852 7.76-51.918 7.76-25.062 0-47.504-8.952-47.504-34.016v-72.806h102.76l-7.16-93.212h-95.6v-323.92h-120.78v323.916h-64.45v93.214z" />
<glyph unicode="&#xe022;" glyph-name="facebook-alt" d="M825.79 353.907l26.665 133.329-133.329-0.021v106.691c0 41.169 20.909 53.329 80 53.329h53.329v133.329c0 0-54.666 0-106.657 0-108.583 0-186.657-64.929-186.657-186.657v-106.657h-133.329v-133.329h133.329v-373.315h159.984v373.315h106.657z" />
<glyph unicode="&#xe023;" glyph-name="Email" d="M793.418 560.472l-273.22 189.148c-6.080 4.72-14.76 5.16-21.388 0.498l-268.652-189.908c-5.142-3.176-8.57-8.864-8.57-15.35v-339.228c0-9.956 8.072-18.030 18.032-18.030h544.764c9.962 0 18.030 8.072 18.030 18.030v339.232c0 6.666-3.618 12.488-8.996 15.608zM509.288 713.45l243.018-168.242-218.802-144.792-11.636 8.022c-6.066 4.842-14.818 5.36-21.514 0.704l-11.616-8.088-217.29 144.272 237.84 168.124zM257.654 511.296l199.334-132.354-199.334-138.802v271.156zM297.040 223.666l213.688 148.794 11.666-8.042c0.464-0.358 0.948-0.686 1.442-0.992l202.732-139.762-429.528 0.002zM766.356 239.896l-200.914 138.508 200.914 132.956v-271.464z" />
<glyph unicode="&#xe024;" glyph-name="DropBox" d="M731.382 482.118l117.394 97.826c0.694 0.552 1.31 1.226 1.816 2.016 2.432 3.824 1.31 8.9-2.516 11.338l-189.978 121.386c-2.988 2.236-7.224 2.214-10.212-0.282l-125.62-105.332-122.706 105.264c-2.7 2.312-6.694 2.68-9.82 0.648l-195.69-127.46c-0.9-0.526-1.71-1.228-2.382-2.108-2.756-3.612-2.062-8.774 1.548-11.534l126.378-96.148-126.116-95.954c-0.93-0.652-1.74-1.508-2.352-2.548-2.314-3.914-1.016-8.96 2.896-11.272l196.004-116.084c2.8-1.654 6.438-1.548 9.182 0.55l122.874 94.482 123.114-94.478c2.598-1.982 6.236-2.3 9.208-0.52l193.222 115.924c0.844 0.466 1.624 1.088 2.284 1.866 2.954 3.45 2.548 8.642-0.9 11.594l-117.628 100.826zM521.63 367.308l-174.020 111.066 176.102 111.016 179.222-107.462-181.304-114.62zM521.964 331.97l-127.298-101.48-70.396 43.312-0.020 17.030 0.034-36.84c-0.096-2.752 1.19-5.486 3.644-7.128l187.848-125.458c2.664-1.86 6.3-2.034 9.192-0.152l192.252 124.694c2.432 1.582 3.754 4.236 3.74 6.938l0.626 24.194-72.372-43.722-127.25 98.612z" />
<glyph unicode="&#xe025;" glyph-name="Blogspot" d="M403.716 753.312h131.096c48.392-5.752 118.8-47.204 144.78-102.34 7.144-15.472 10.908-17.85 16.858-63.664 3.174-23.602 4.762-41.056 15.272-50.774 14.874-13.488 70.010-4.364 80.918-12.892l8.33-6.544 4.96-10.314 1.784-8.33-1.19-151.522c-0.592-102.934-84.29-187.224-187.42-187.224h-215.386c-103.132 0-187.42 84.29-187.42 187.224v218.756c-0.002 103.134 84.288 187.624 187.418 187.624v0zM406.098 385.412c-19.834 0-35.9-16.066-35.9-35.7 0-19.436 16.066-35.7 35.9-35.7h211.22c19.634 0 35.7 16.264 35.7 35.7 0 19.634-16.066 35.7-35.7 35.7h-211.22zM406.098 600.002c-19.834 0-35.9-16.066-35.9-35.7s16.066-35.898 35.9-35.898h103.924c19.832 0 35.898 16.264 35.898 35.898s-16.066 35.7-35.898 35.7h-103.924z" />
<glyph unicode="&#xe027;" glyph-name="YouTubeplay" d="M584.254 172.376c-114.512 0-229.014-0.728-343.518 0.308-57.576 0.514-81.63 18.678-98.234 76.816-26.244 91.872-25.58 186.328-18.042 280.482 3.192 39.9 9.742 80.312 21.178 118.582 15.614 52.304 40.978 69.356 95.174 69.636 185.842 0.948 371.682 1.508 557.516 0.83 66.274-0.246 94.718-21.21 108.71-85.224 27.36-125.196 27.502-251.568 0.128-376.778-13.964-63.88-41.994-83.81-108.836-85.114-71.35-1.396-142.74-0.316-214.11-0.316 0.010 0.254 0.016 0.514 0.034 0.778zM442.284 294.85c80.048 51.618 153.618 99.056 234.394 151.136-81.27 52.526-154.838 100.084-234.394 151.502 0-103.368 0-198.044 0-302.638z" />
<glyph unicode="&#xe028;" glyph-name="logo-top-left" d="M0-64v1024h1024v-1024h-1024zM981.333 917.333h-938.667v-298.667h938.667v298.667zM981.333 576h-938.667v-597.333h938.667v597.333zM149.333 725.333h64v-42.667h-106.667v170.667h42.667v-128zM533.333 746.667h-106.667v42.667h106.667v-42.667zM725.333 746.667h-106.667v42.667h106.667v-42.667zM917.333 746.667h-106.667v42.667h106.667v-42.667z" />
<glyph unicode="&#xe029;" glyph-name="logo-top-right" d="M0-64v1024h1024v-1024h-1024zM981.333 917.333h-938.667v-298.667h938.667v298.667zM981.333 576h-938.667v-597.333h938.667v597.333zM213.333 746.667h-106.667v42.667h106.667v-42.667zM405.333 746.667h-106.667v42.667h106.667v-42.667zM597.333 746.667h-106.667v42.667h106.667v-42.667zM853.333 725.333h64v-42.667h-106.667v170.667h42.667v-128z" />
<glyph unicode="&#xe02a;" glyph-name="logo-top-center" d="M0-64v1024h1024v-1024h-1024zM981.333 917.333h-938.667v-298.667h938.667v298.667zM981.333 576h-938.667v-597.333h938.667v597.333zM213.333 746.667h-106.667v42.667h106.667v-42.667zM405.333 746.667h-106.667v42.667h106.667v-42.667zM512 725.333h64v-42.667h-106.667v170.667h42.667v-128zM725.333 746.667h-106.667v42.667h106.667v-42.667zM917.333 746.667h-106.667v42.667h106.667v-42.667z" />
<glyph unicode="&#xe02b;" glyph-name="logo-mobile" d="M0-64v1024h1024v-1024h-1024zM981.333 917.333h-938.667v-298.667h938.667v298.667zM981.333 576h-938.667v-597.333h938.667v597.333zM149.333 725.333h64v-42.667h-106.667v170.667h42.667v-128zM917.333 810.667h-149.333v42.667h149.333v-42.667zM917.333 746.667h-149.333v42.667h149.333v-42.667zM917.333 682.667h-149.333v42.667h149.333v-42.667z" />
<glyph unicode="&#xe02c;" glyph-name="logo-box-left" d="M0-64v1024h1024v-1024h-1024zM981.333 917.333h-938.667v-938.667h938.667v938.667zM896 448h-768v384h768v-384zM853.333 789.333h-682.667v-298.667h682.667v298.667zM277.333 597.333h64v-42.667h-106.667v170.667h42.667v-128zM618.667 618.667h-106.667v42.667h106.667v-42.667zM810.667 618.667h-106.667v42.667h106.667v-42.667z" />
<glyph unicode="&#xe02d;" glyph-name="logo-box-right" d="M0-64v1024h1024v-1024h-1024zM981.333 917.333h-938.667v-938.667h938.667v938.667zM896 448h-768v384h768v-384zM853.333 789.333h-682.667v-298.667h682.667v298.667zM341.333 618.667h-106.667v42.667h106.667v-42.667zM533.333 618.667h-106.667v42.667h106.667v-42.667zM725.333 597.333h64v-42.667h-106.667v170.667h42.667v-128z" />
<glyph unicode="&#xe02e;" glyph-name="logo-2line-center" d="M0-64v1024h1024v-1024h-1024zM981.333 917.333h-938.667v-426.667h938.667v426.667zM981.333 448h-938.667v-469.333h938.667v469.333zM277.333 576h-106.667v42.667h106.667v-42.667zM469.333 576h-106.667v42.667h106.667v-42.667zM448 853.333h42.667v-128h64v-42.667h-106.667v170.667zM661.333 576h-106.667v42.667h106.667v-42.667zM853.333 576h-106.667v42.667h106.667v-42.667z" />
<glyph unicode="&#xe02f;" glyph-name="logo-2line-left" d="M0-64v1024h1024v-1024h-1024zM981.333 917.333h-938.667v-426.667h938.667v426.667zM981.333 448h-938.667v-469.333h938.667v469.333zM213.333 725.333h64v-42.667h-106.667v170.667h42.667v-128zM277.333 576h-106.667v42.667h106.667v-42.667zM469.333 576h-106.667v42.667h106.667v-42.667zM661.333 576h-106.667v42.667h106.667v-42.667zM853.333 576h-106.667v42.667h106.667v-42.667z" />
<glyph unicode="&#xe030;" glyph-name="logo-2line-right" d="M0-64v1024h1024v-1024h-1024zM981.333 917.333h-938.667v-426.667h938.667v426.667zM981.333 448h-938.667v-469.333h938.667v469.333zM277.333 576h-106.667v42.667h106.667v-42.667zM469.333 576h-106.667v42.667h106.667v-42.667zM661.333 576h-106.667v42.667h106.667v-42.667zM789.333 725.333h64v-42.667h-106.667v170.667h42.667v-128zM853.333 576h-106.667v42.667h106.667v-42.667z" />
<glyph unicode="&#xe031;" glyph-name="logo-fixed-left" d="M0-64v1024h1024v-1024h-1024zM362.667 917.333h-320v-938.667h320v938.667zM981.333 917.333h-576v-938.667h576v938.667zM192 725.333h64v-42.667h-106.667v170.667h42.667v-128zM256 490.667h-106.667v42.667h106.667v-42.667zM256 384h-106.667v42.667h106.667v-42.667zM256 277.333h-106.667v42.667h106.667v-42.667zM256 170.667h-106.667v42.667h106.667v-42.667z" />
<glyph unicode="&#xe032;" glyph-name="logo-fixed-right" d="M0-64v1024h1024v-1024h-1024zM618.667 917.333h-576v-938.667h576v938.667zM981.333 917.333h-320v-938.667h320v938.667zM810.667 725.333h64v-42.667h-106.667v170.667h42.667v-128zM874.667 490.667h-106.667v42.667h106.667v-42.667zM874.667 384h-106.667v42.667h106.667v-42.667zM874.667 277.333h-106.667v42.667h106.667v-42.667zM874.667 170.667h-106.667v42.667h106.667v-42.667z" />
<glyph unicode="&#xe033;" glyph-name="logo-bottom" d="M0-64v1024h1024v-1024h-1024zM981.333 917.333h-938.667v-597.333h938.667v597.333zM981.333 277.333h-938.667v-298.667h938.667v298.667zM149.333 85.333h64v-42.667h-106.667v170.667h42.667v-128zM533.333 106.667h-106.667v42.667h106.667v-42.667zM725.333 106.667h-106.667v42.667h106.667v-42.667zM917.333 106.667h-106.667v42.667h106.667v-42.667z" />
<glyph unicode="&#xe034;" glyph-name="format-vertical" d="M127.866-64.078v1024.182h768.13v-1024.182h-768.13zM863.993 928.074h-704.123v-960.176h704.123v960.176z" />
<glyph unicode="&#xe035;" glyph-name="format-box" d="M128.020-64.068v767.952h767.952v-767.952h-767.952zM863.973 671.885h-703.963v-703.963h703.963v703.963z" />
<glyph unicode="&#xe036;" glyph-name="format-horisontal" d="M128.022-64.068v511.967h767.956v-511.967h-767.956zM863.978 415.903h-703.956v-447.972h703.956v447.972z" />
<glyph unicode="&#xe037;" glyph-name="type-tile" d="M768-64v256h256v-256h-256zM981.333 149.333h-170.667v-170.667h170.667v170.667zM768 576h256v-256h-256v256zM810.667 362.667h170.667v170.667h-170.667v-170.667zM768 960h256v-256h-256v256zM810.667 746.667h170.667v170.667h-170.667v-170.667zM384 192h256v-256h-256v256zM426.667-21.333h170.667v170.667h-170.667v-170.667zM384 576h256v-256h-256v256zM426.667 362.667h170.667v170.667h-170.667v-170.667zM384 960h256v-256h-256v256zM426.667 746.667h170.667v170.667h-170.667v-170.667zM0 192h256v-256h-256v256zM42.667-21.333h170.667v170.667h-170.667v-170.667zM0 576h256v-256h-256v256zM42.667 362.667h170.667v170.667h-170.667v-170.667zM0 960h256v-256h-256v256zM42.667 746.667h170.667v170.667h-170.667v-170.667z" />
<glyph unicode="&#xe038;" glyph-name="type-tile-room" d="M1024-64h-1024v1024h1024v-1024zM704 256v-277.333h277.333v277.333h-277.333zM362.667 256v-277.333h298.667v277.333h-298.667zM42.667 256v-277.333h277.333v277.333h-277.333v42.667h277.333v298.667h-277.333v42.667h277.333v277.333h42.667v-277.333h298.667v277.333h42.667v-277.333h277.333v277.333h-938.667v-661.333zM704 597.333v-298.667h277.333v298.667h-277.333zM362.667 597.333v-298.667h298.667v298.667h-298.667z" />
<glyph unicode="&#xe039;" glyph-name="type-presentation" d="M0-64v1024h1024v-1024h-1024zM981.333 917.333h-938.667v-938.667h938.667v938.667zM512 802.133l6.4 8.533 76.8-76.8-25.6-29.867-57.6 57.6-57.6-57.6-27.733 27.733 78.933 78.933 6.4-8.533zM512 134.4l57.6 57.6 27.733-27.733-78.933-78.933-6.4 8.533-6.4-8.533-78.933 78.933 27.733 27.733 57.6-57.6z" />
<glyph unicode="&#xe03a;" glyph-name="type-landing" d="M0-64v1024h1024v-1024h-1024zM981.333 917.333h-938.667v-298.667h938.667v298.667zM981.333 576h-938.667v-277.333h938.667v277.333zM981.333 256h-938.667v-277.333h938.667v277.333z" />
<glyph unicode="&#xe03b;" glyph-name="type-slider" d="M0-64v1024h1024v-1024h-1024zM213.333 917.333h-170.667v-938.667h170.667v938.667zM768 917.333h-512v-938.667h512v938.667zM981.333 917.333h-170.667v-938.667h170.667v938.667zM881.067 533.333l76.8-76.8-6.4-8.533 6.4-6.4-76.8-78.933-27.733 27.733 57.6 57.6-57.6 57.6 27.733 27.733zM142.933 533.333l27.733-27.733-57.6-57.6 57.6-57.6-27.733-27.733-78.933 78.933 8.533 6.4-8.533 6.4 78.933 78.933z" />
<glyph unicode="&#xe03c;" glyph-name="size-large" d="M0-64v1024h1024v-1024h-1024zM981.333 917.333h-938.667v-938.667h938.667v938.667zM512 405.333h64v-42.667h-106.667v170.667h42.667v-128z" />
<glyph unicode="&#xe03d;" glyph-name="size-average" d="M104.017-64.073v815.961h815.961v-815.961h-815.961zM877.038 708.948h-730.077v-730.077h730.077v730.077zM512 324.584l64.425 105.216h42.949v-171.782h-42.949v107.359l-64.425-107.359-64.425 107.359v-107.359h-42.949v171.782h42.949l64.425-105.216z" />
<glyph unicode="&#xe03e;" glyph-name="size-small" d="M208.036-64.073v607.922h607.922v-607.922h-607.922zM772.543 500.435h-521.072v-521.072h521.072v521.072zM516.35 189.956c13.025 0 21.71 6.515 21.71 13.025 0 23.876-86.85 4.35-86.85 69.475 0 28.225 21.71 54.275 60.8 54.275 23.876 0 45.6-8.68 60.8-23.876l-21.71-30.4c-13.025 10.85-30.4 17.375-43.425 17.375-10.85 0-17.375-4.35-17.375-13.025 0-21.71 84.675-6.515 84.675-69.475 0-34.74-21.71-56.45-62.966-56.45-30.4 0-52.101 10.85-67.299 26.050l21.71 32.575c13.025-8.68 28.225-19.545 49.936-19.545v0z" />
<glyph unicode="&#xe03f;" glyph-name="proportion-tile" d="M384-64v256h640v-256h-640zM981.333 149.333h-554.667v-170.667h554.667v170.667zM768 576h256v-256h-256v256zM810.667 362.667h170.667v170.667h-170.667v-170.667zM768 960h256v-256h-256v256zM810.667 746.667h170.667v170.667h-170.667v-170.667zM0 960h640v-640h-640v640zM42.667 362.667h554.667v554.667h-554.667v-554.667zM256-64h-256v256h256v-256zM213.333 149.333h-170.667v-170.667h170.667v170.667z" />
<glyph unicode="&#xe040;" glyph-name="proportion-different" d="M768-64v149.333h256v-149.333h-256zM981.333 42.667h-170.667v-64h170.667v64zM768 469.333h256v-256h-256v256zM810.667 256h170.667v170.667h-170.667v-170.667zM768 960h256v-362.667h-256v362.667zM810.667 640h170.667v277.333h-170.667v-277.333zM384 149.333h256v-213.333h-256v213.333zM426.667-21.333h170.667v128h-170.667v-128zM384 618.667h256v-341.333h-256v341.333zM426.667 320h170.667v256h-170.667v-256zM384 960h256v-213.333h-256v213.333zM426.667 789.333h170.667v128h-170.667v-128zM0 320h256v-384h-256v384zM42.667-21.333h170.667v298.667h-170.667v-298.667zM0 960h256v-512h-256v512zM42.667 490.667h170.667v426.667h-170.667v-426.667z" />
<glyph unicode="&#xe041;" glyph-name="proportion-equal" d="M768-64v256h256v-256h-256zM981.333 149.333h-170.667v-170.667h170.667v170.667zM768 576h256v-256h-256v256zM810.667 362.667h170.667v170.667h-170.667v-170.667zM768 960h256v-256h-256v256zM810.667 746.667h170.667v170.667h-170.667v-170.667zM384 192h256v-256h-256v256zM426.667-21.333h170.667v170.667h-170.667v-170.667zM384 576h256v-256h-256v256zM426.667 362.667h170.667v170.667h-170.667v-170.667zM384 960h256v-256h-256v256zM426.667 746.667h170.667v170.667h-170.667v-170.667zM0 192h256v-256h-256v256zM42.667-21.333h170.667v170.667h-170.667v-170.667zM0 576h256v-256h-256v256zM42.667 362.667h170.667v170.667h-170.667v-170.667zM0 960h256v-256h-256v256zM42.667 746.667h170.667v170.667h-170.667v-170.667z" />
<glyph unicode="&#xe042;" glyph-name="help-faq" d="M880-64h-736c-27.2 0-48 20.8-48 48v928c0 27.2 20.8 48 48 48h736c27.2 0 48-20.8 48-48v-928c0-27.2-20.8-48-48-48v0zM896 912c0 9.6-6.4 16-16 16h-736c-9.6 0-16-6.4-16-16v-928c0-9.6 6.4-16 16-16h736c9.6 0 16 6.4 16 16v928zM272 144h480v-32h-480v32zM272 304h480v-32h-480v32zM272 464h480v-32h-480v32zM272 624h480v-32h-480v32zM272 784h480v-32h-480v32z" />
<glyph unicode="&#xe043;" glyph-name="help-question" d="M976-64c-30.4 0-897.6 0-928 0-24 0-48 22.4-48 48 0 44.8 0 464 0 464v0 0l4.8-1.6 139.2 97.6v368c0 27.2 20.8 48 48 48h640c27.2 0 48-20.8 48-48v-368l139.2-97.6 4.8 1.6c0 0 0-430.4 0-464 0-24-24-48-48-48v0 0zM32 400v-416c0-9.6 6.4-16 16-16h928c9.6 0 16 6.4 16 16v416l-480-224-480 224zM192 928c-9.6 0-16-6.4-16-16v-544c0 0 1.6-1.6 3.2-3.2l332.8-156.8 332.8 156.8c1.6 1.6 3.2 3.2 3.2 3.2v544c0 9.6-6.4 16-16 16h-640zM880 500.8v-120l104 49.6-104 70.4zM144 500.8l-104-72 104-48v120z" />
<glyph unicode="&#xe044;" glyph-name="help-video" d="M512-64c-283.2 0-512 228.8-512 512s228.8 512 512 512 512-228.8 512-512-228.8-512-512-512v0 0zM512 928c-265.6 0-480-214.4-480-480s214.4-480 480-480 480 214.4 480 480c0 265.6-214.4 480-480 480v0 0zM400 240v400l320-200-320-200zM432 576v-272l220.8 136-220.8 136z" />
<glyph unicode="&#xe045;" glyph-name="help-tips" horiz-adv-x="1152" d="M1096.981 79.719h-736.561l-179.649-143.719v143.719h-125.754c-28.744 0-53.895 26.947-53.895 53.895v772.491c0 28.744 26.947 53.895 53.895 53.895h1041.965c26.947 0 53.895-26.947 53.895-53.895v-772.491c0-28.744-26.947-53.895-53.895-53.895v0zM1114.946 906.105c0 10.779-7.186 17.965-17.965 17.965h-1041.965c-10.779 0-17.965-7.186-17.965-17.965v-772.491c0-10.779 7.186-17.965 17.965-17.965h161.684v-107.789l125.754 107.789h754.526c10.779 0 17.965 7.186 17.965 17.965v772.491zM468.209 349.193h89.825v269.474l-53.895 1.796v34.133h89.825v-305.404h89.825v-35.93h-215.579v35.93zM558.033 744.421h35.93v-35.93h-35.93v35.93z" />
<glyph unicode="&#xe046;" glyph-name="grid-tile" horiz-adv-x="1357" d="M1297.755-64h-1238.71c-28.077 0-49.548 21.471-49.548 49.548v924.903c0 28.077 21.471 49.548 49.548 49.548h1238.71c28.077 0 49.548-21.471 49.548-49.548v-924.903c0-28.077-21.471-49.548-49.548-49.548v0zM1314.271 910.452c0 9.91-6.606 16.516-16.516 16.516h-1238.71c-9.91 0-16.516-6.606-16.516-16.516v-924.903c0-9.91 6.606-16.516 16.516-16.516h1238.71c9.91 0 16.516 6.606 16.516 16.516v924.903zM1000.465 282.839h198.194v-198.194h-198.194v198.194zM1033.497 117.677h132.129v132.129h-132.129v-132.129zM1000.465 547.097h198.194v-198.194h-198.194v198.194zM1033.497 381.935h132.129v132.129h-132.129v-132.129zM1000.465 811.355h198.194v-198.194h-198.194v198.194zM1033.497 646.194h132.129v132.129h-132.129v-132.129zM719.691 282.839h198.194v-198.194h-198.194v198.194zM752.723 117.677h132.129v132.129h-132.129v-132.129zM719.691 547.097h198.194v-198.194h-198.194v198.194zM752.723 381.935h132.129v132.129h-132.129v-132.129zM719.691 811.355h198.194v-198.194h-198.194v198.194zM752.723 646.194h132.129v132.129h-132.129v-132.129zM438.916 282.839h198.194v-198.194h-198.194v198.194zM471.949 117.677h132.129v132.129h-132.129v-132.129zM438.916 547.097h198.194v-198.194h-198.194v198.194zM471.949 381.935h132.129v132.129h-132.129v-132.129zM438.916 811.355h198.194v-198.194h-198.194v198.194zM471.949 646.194h132.129v132.129h-132.129v-132.129zM158.142 282.839h198.194v-198.194h-198.194v198.194zM191.174 117.677h132.129v132.129h-132.129v-132.129zM158.142 547.097h198.194v-198.194h-198.194v198.194zM191.174 381.935h132.129v132.129h-132.129v-132.129zM158.142 811.355h198.194v-198.194h-198.194v198.194zM191.174 646.194h132.129v132.129h-132.129v-132.129z" />
<glyph unicode="&#xe047;" glyph-name="grid-landing" horiz-adv-x="1357" d="M1306.013-64h-1255.226c-28.077 0-49.548 21.471-49.548 49.548v924.903c0 28.077 21.471 49.548 49.548 49.548h1255.226c28.077 0 49.548-21.471 49.548-49.548v-924.903c0-28.077-21.471-49.548-49.548-49.548v0zM1322.529 910.452c0 9.91-6.606 16.516-16.516 16.516h-1255.226c-9.91 0-16.516-6.606-16.516-16.516v-280.774h1288.258v280.774zM1322.529 596.645h-1288.258v-297.29h1288.258v297.29zM1322.529 266.323h-1288.258v-280.774c0-9.91 6.606-16.516 16.516-16.516h1255.226c9.91 0 16.516 6.606 16.516 16.516v280.774z" />
<glyph unicode="&#xe048;" glyph-name="grid-slider" horiz-adv-x="1357" d="M1306.013-64h-1255.226c-28.077 0-49.548 21.471-49.548 49.548v924.903c0 28.077 21.471 49.548 49.548 49.548h1255.226c28.077 0 49.548-21.471 49.548-49.548v-924.903c0-28.077-21.471-49.548-49.548-49.548v0zM248.981 926.968h-198.194c-9.91 0-16.516-6.606-16.516-16.516v-924.903c0-9.91 6.606-16.516 16.516-16.516h198.194v957.935zM1074.787 926.968h-792.774v-957.935h792.774v957.935zM1322.529 910.452c0 9.91-6.606 16.516-16.516 16.516h-198.194v-957.935h198.194c9.91 0 16.516 6.606 16.516 16.516v924.903zM1195.355 348.903l-21.471 21.471 61.11 61.11-61.11 61.11 21.471 21.471 75.974-75.974-4.955-6.606 4.955-4.955-75.974-77.626zM161.445 514.065l21.471-21.471-61.11-61.11 61.11-61.11-21.471-21.471-77.626 77.626 6.606 4.955-6.606 4.955 77.626 77.626z" />
<glyph unicode="&#xe049;" glyph-name="grid-presentation" horiz-adv-x="1357" d="M1306.013-64h-1255.226c-28.077 0-49.548 21.471-49.548 49.548v924.903c0 28.077 21.471 49.548 49.548 49.548h1255.226c28.077 0 49.548-21.471 49.548-49.548v-924.903c0-28.077-21.471-49.548-49.548-49.548v0zM1322.529 910.452c0 9.91-6.606 16.516-16.516 16.516h-1255.226c-9.91 0-16.516-6.606-16.516-16.516v-924.903c0-9.91 6.606-16.516 16.516-16.516h1255.226c9.91 0 16.516 6.606 16.516 16.516v924.903zM678.4 58.219l-4.955-6.606-77.626 77.626 21.471 21.471 61.11-61.11 61.11 61.11 21.471-21.471-77.626-77.626-4.955 6.606zM678.4 806.4l-61.11-61.11-21.471 21.471 77.626 77.626 4.955-6.606 4.955 6.606 75.974-75.974-19.819-23.123-61.11 61.11z" />
<glyph unicode="&#xe04a;" glyph-name="grid-tile-room" horiz-adv-x="1357" d="M1306.013-64h-1255.226c-28.077 0-49.548 21.471-49.548 49.548v924.903c0 28.077 21.471 49.548 49.548 49.548h1255.226c28.077 0 49.548-21.471 49.548-49.548v-924.903c0-28.077-21.471-49.548-49.548-49.548v0zM694.916-30.968h297.29v297.29h-297.29v-297.29zM694.916 299.355h297.29v297.29h-297.29v-297.29zM331.562 926.968h-280.774c-9.91 0-16.516-6.606-16.516-16.516v-280.774h297.29v297.29zM331.562 596.645h-297.29v-297.29h297.29v297.29zM331.562 266.323h-297.29v-280.774c0-9.91 6.606-16.516 16.516-16.516h280.774v297.29zM661.884 926.968h-297.29v-297.29h297.29v297.29zM661.884 596.645h-297.29v-297.29h297.29v297.29zM661.884 266.323h-297.29v-297.29h297.29v297.29zM694.916 926.968v-297.29h297.29v297.29h-297.29zM1322.529 910.452c0 9.91-6.606 16.516-16.516 16.516h-280.774v-297.29h297.29v280.774zM1322.529 596.645h-297.29v-297.29h297.29v297.29zM1322.529 266.323h-297.29v-297.29h280.774c9.91 0 16.516 6.606 16.516 16.516v280.774z" />
</font>
</defs>
</svg>
